<svg width="212" height="262" viewBox="0 0 212 262" fill="none" xmlns="http://www.w3.org/2000/svg">
<path fill-rule="evenodd" clip-rule="evenodd" d="M106.233 148.268L177.229 131.502C196.652 126.915 208.68 107.451 204.093 88.028C203.596 85.924 201.488 84.6211 199.384 85.1179L128.388 101.883C108.964 106.47 96.9366 125.934 101.523 145.358C102.02 147.462 104.129 148.764 106.233 148.268ZM178.608 137.342C201.256 131.993 215.281 109.297 209.933 86.649C208.674 81.32 203.334 78.0201 198.005 79.2785L127.009 96.044C104.36 101.392 90.3357 124.088 95.684 146.737C96.9424 152.066 102.283 155.365 107.612 154.107L178.608 137.342Z" fill="white"/>
<path fill-rule="evenodd" clip-rule="evenodd" d="M89.3361 96.5956L32.9046 70.915C10.284 60.6209 0.291365 33.9383 10.5855 11.3176L10.9997 10.4074C12.3722 7.39134 15.9299 6.05899 18.946 7.43154L75.3774 33.1121C97.9981 43.4062 107.991 70.0889 97.6966 92.7096L97.2824 93.6197C95.9099 96.6358 92.3522 97.9682 89.3361 96.5956ZM30.4194 76.3762C4.78269 64.7095 -6.54229 34.4691 5.12437 8.83239L5.53857 7.92221C8.28367 1.89003 15.399 -0.774667 21.4312 1.97043L77.8627 27.651C103.499 39.3177 114.824 69.558 103.158 95.1948L102.744 96.105C99.9984 102.137 92.883 104.802 86.8509 102.057L30.4194 76.3762Z" fill="white"/>
<path fill-rule="evenodd" clip-rule="evenodd" d="M93.5003 204.965L95.0003 96.9653L99.9998 97.0347L98.4998 205.035L93.5003 204.965Z" fill="white"/>
<path fill-rule="evenodd" clip-rule="evenodd" d="M133.698 209.828C135.783 210.456 137.944 211.108 140.207 211.775C143.494 212.744 146.625 213.386 149.683 213.972C150.158 214.063 150.632 214.152 151.107 214.242C153.654 214.724 156.19 215.205 158.63 215.832C164.538 217.352 170.113 219.789 175.341 225.482C180.269 230.848 183.002 239.423 184.526 246.262C185.303 249.748 185.793 252.918 186.09 255.215C186.238 256.365 186.338 257.301 186.402 257.953C186.434 258.279 186.456 258.534 186.471 258.711C186.478 258.799 186.484 258.867 186.488 258.915L186.492 258.97L186.493 258.986L186.493 258.991L186.493 258.992C186.493 258.992 186.494 258.994 184 259.173L186.494 258.994L186.686 261.673H5.08366L5.52939 258.791L8.00002 259.173C5.52939 258.791 5.52956 258.79 5.52956 258.79L5.53055 258.783L5.53301 258.768L5.54182 258.712C5.54944 258.665 5.56056 258.596 5.57526 258.508C5.60467 258.331 5.64842 258.075 5.70716 257.748C5.82461 257.093 6.00216 256.155 6.24502 255.001C6.73017 252.695 7.47884 249.518 8.53421 246.029C10.608 239.174 13.9989 230.65 19.2304 225.407C23.9409 220.686 28.6153 218.285 33.5681 216.553C35.8647 215.75 38.238 215.085 40.6474 214.41C40.7926 214.369 40.938 214.329 41.0835 214.288C43.6655 213.564 46.3277 212.807 49.1758 211.813C49.4778 211.707 49.7773 211.602 50.0745 211.499C64.13 206.588 72.8882 203.528 88.3627 202.677C106.643 201.671 118.024 205.102 133.698 209.828ZM11.0048 256.673H181.233C181.202 256.415 181.168 256.142 181.131 255.855C180.849 253.666 180.382 250.652 179.646 247.349C178.144 240.609 175.627 233.185 171.659 228.864C167.272 224.086 162.665 222.033 157.385 220.675C155.115 220.091 152.764 219.645 150.214 219.162C149.731 219.071 149.241 218.978 148.743 218.882C145.65 218.29 142.324 217.611 138.793 216.571C136.502 215.895 134.328 215.241 132.245 214.614C116.579 209.897 106.004 206.713 88.6374 207.669C73.8726 208.481 65.6867 211.341 51.5974 216.263C51.3416 216.352 51.084 216.442 50.8243 216.533C47.8138 217.584 45.0175 218.378 42.4333 219.102C42.303 219.139 42.1733 219.175 42.0443 219.211C39.5913 219.898 37.3608 220.523 35.219 221.273C30.7928 222.821 26.8257 224.874 22.7697 228.939C18.4735 233.244 15.3643 240.719 13.32 247.477C12.3164 250.795 11.6015 253.827 11.1378 256.03C11.0909 256.253 11.0466 256.468 11.0048 256.673Z" fill="white"/>
</svg>
