<svg width="155" height="209" viewBox="0 0 155 209" fill="none" xmlns="http://www.w3.org/2000/svg">
<rect width="155" height="209" fill="#1E1E1E"/>
<g id="Index.html" clip-path="url(#clip0_0_1)">
<rect width="1440" height="3732" transform="translate(-917 -2487)" fill="#FCF6FC"/>
<g id="&#60;main&#62;">
<rect x="-699.5" y="-2489.5" width="1005" height="3737" stroke="#7D529E" stroke-width="5"/>
<g id="bg" filter="url(#filter0_d_0_1)">
<rect x="-697" y="-2487" width="1000" height="3553" fill="white"/>
</g>
<g id="tidigare odlingar container">
<g id="plant circle">
<g id="Rectangle 2">
<g filter="url(#filter1_i_0_1)">
<rect x="-111" y="-86" width="377" height="377" rx="188.5" fill="#0A846E"/>
</g>
<rect x="-111" y="-86" width="377" height="377" rx="188.5" stroke="#0A846E" stroke-width="14"/>
</g>
<g id="Group 3">
<path id="Subtract" fill-rule="evenodd" clip-rule="evenodd" d="M11.9256 91.7397C8.05963 91.7397 4.92563 94.8737 4.92563 98.7397V115.983C4.92563 119.849 8.05962 122.983 11.9256 122.983H16.0083V148.566C16.0083 181.703 42.8712 208.566 76.0083 208.566H78.9918C112.129 208.566 138.992 181.703 138.992 148.566V122.983H142.459C146.325 122.983 149.459 119.849 149.459 115.983V98.7397C149.459 94.8737 146.325 91.7397 142.459 91.7397H11.9256ZM59.0289 122.983H45.7187L45.6259 116.983H59.0289V122.983ZM70.1116 122.983H132.992V148.566C132.992 178.389 108.815 202.566 78.9918 202.566H76.0083C46.1849 202.566 22.0083 178.39 22.0083 148.566V122.983H32.1717L32.0788 116.983H19.0083H11.9256C11.3733 116.983 10.9256 116.536 10.9256 115.983V98.7397C10.9256 98.1874 11.3733 97.7397 11.9256 97.7397H142.459C143.011 97.7397 143.459 98.1874 143.459 98.7397V115.983C143.459 116.536 143.011 116.983 142.459 116.983H135.992H70.1116V122.983Z" fill="white"/>
<path id="Line 3" d="M80.5 36.248C80.5 34.5911 79.1569 33.248 77.5 33.248C75.8431 33.248 74.5 34.5911 74.5 36.248H80.5ZM80.5 92.8926V36.248H74.5V92.8926H80.5Z" fill="white"/>
<path id="Rectangle 9" d="M3 3H50.5C65.4117 3 77.5 15.0883 77.5 30V36.2479H30C15.0883 36.2479 3 24.1596 3 9.24793V3Z" stroke="white" stroke-width="6" stroke-linejoin="round"/>
<path id="Rectangle 10" d="M152 19.624H104.5C89.5883 19.624 77.5 31.7123 77.5 46.624V52.8719H125C139.912 52.8719 152 40.7836 152 25.8719V19.624Z" stroke="white" stroke-width="6" stroke-linejoin="round"/>
</g>
</g>
</g>
</g>
<g id="Rectangle 31">
<rect x="-915" y="-108.737" width="1436" height="505.737" stroke="#567500" stroke-width="4"/>
<rect x="-915" y="-108.737" width="1436" height="505.737" stroke="#567500" stroke-width="4"/>
</g>
</g>
<defs>
<filter id="filter0_d_0_1" x="-701" y="-2487" width="1008" height="3561" filterUnits="userSpaceOnUse" color-interpolation-filters="sRGB">
<feFlood flood-opacity="0" result="BackgroundImageFix"/>
<feColorMatrix in="SourceAlpha" type="matrix" values="0 0 0 0 0 0 0 0 0 0 0 0 0 0 0 0 0 0 127 0" result="hardAlpha"/>
<feOffset dy="4"/>
<feGaussianBlur stdDeviation="2"/>
<feComposite in2="hardAlpha" operator="out"/>
<feColorMatrix type="matrix" values="0 0 0 0 0 0 0 0 0 0 0 0 0 0 0 0 0 0 0.25 0"/>
<feBlend mode="normal" in2="BackgroundImageFix" result="effect1_dropShadow_0_1"/>
<feBlend mode="normal" in="SourceGraphic" in2="effect1_dropShadow_0_1" result="shape"/>
</filter>
<filter id="filter1_i_0_1" x="-118" y="-93" width="391" height="395" filterUnits="userSpaceOnUse" color-interpolation-filters="sRGB">
<feFlood flood-opacity="0" result="BackgroundImageFix"/>
<feBlend mode="normal" in="SourceGraphic" in2="BackgroundImageFix" result="shape"/>
<feColorMatrix in="SourceAlpha" type="matrix" values="0 0 0 0 0 0 0 0 0 0 0 0 0 0 0 0 0 0 127 0" result="hardAlpha"/>
<feOffset dy="4"/>
<feGaussianBlur stdDeviation="2"/>
<feComposite in2="hardAlpha" operator="arithmetic" k2="-1" k3="1"/>
<feColorMatrix type="matrix" values="0 0 0 0 0 0 0 0 0 0 0 0 0 0 0 0 0 0 0.25 0"/>
<feBlend mode="normal" in2="shape" result="effect1_innerShadow_0_1"/>
</filter>
<clipPath id="clip0_0_1">
<rect width="1440" height="3732" fill="white" transform="translate(-917 -2487)"/>
</clipPath>
</defs>
</svg>
