<svg width="221" height="218" viewBox="0 0 221 218" fill="none" xmlns="http://www.w3.org/2000/svg">
<path fill-rule="evenodd" clip-rule="evenodd" d="M124.78 19.8534L69.2632 111.324L64.134 108.211L119.651 16.7403L124.78 19.8534Z" fill="white"/>
<path fill-rule="evenodd" clip-rule="evenodd" d="M48.5 141C52.0899 141 55 138.09 55 134.5C55 130.91 52.0899 128 48.5 128C44.9101 128 42 130.91 42 134.5C42 138.09 44.9101 141 48.5 141ZM48.5 147C55.4036 147 61 141.404 61 134.5C61 127.596 55.4036 122 48.5 122C41.5964 122 36 127.596 36 134.5C36 141.404 41.5964 147 48.5 147Z" fill="white"/>
<path fill-rule="evenodd" clip-rule="evenodd" d="M73.5 179C77.0899 179 80 176.09 80 172.5C80 168.91 77.0899 166 73.5 166C69.9101 166 67 168.91 67 172.5C67 176.09 69.9101 179 73.5 179ZM73.5 185C80.4036 185 86 179.404 86 172.5C86 165.596 80.4036 160 73.5 160C66.5964 160 61 165.596 61 172.5C61 179.404 66.5964 185 73.5 185Z" fill="white"/>
<path fill-rule="evenodd" clip-rule="evenodd" d="M133.035 183.289C121.474 180.959 114.531 180.85 103.048 183.284C97.5633 184.447 93.7531 187.362 89.5965 190.542C89.2016 190.844 88.8036 191.149 88.4007 191.454C83.8252 194.926 78.7009 198.436 70.9975 198.338C63.4399 198.243 58.5045 194.494 54.1542 191.007C53.9538 190.846 53.7547 190.686 53.5566 190.527C49.3744 187.167 45.6638 184.185 40.137 183.308C39.1065 183.144 38.1111 182.98 37.147 182.82C27.6209 181.246 21.1469 180.177 13.9969 185.362C11.8737 186.902 10.193 189.395 8.90406 192.521C7.62274 195.627 6.80492 199.173 6.2943 202.579C5.78545 205.974 5.59291 209.15 5.52859 211.484C5.51502 211.976 5.50719 212.43 5.50326 212.839H178.127C177.98 212.693 177.829 212.543 177.675 212.391C174.807 209.563 170.744 205.744 165.964 201.784C156.305 193.781 144.089 185.518 133.035 183.289ZM184.029 215.339C185.879 213.657 185.878 213.656 185.878 213.656L185.871 213.649L185.854 213.63L185.791 213.561C185.735 213.501 185.655 213.413 185.549 213.3C185.338 213.073 185.028 212.743 184.628 212.323C183.826 211.484 182.659 210.284 181.187 208.832C178.244 205.929 174.072 202.008 169.154 197.933C159.417 189.866 146.382 180.879 134.023 178.388C121.849 175.934 114.214 175.806 102.011 178.393C95.3654 179.802 90.6826 183.4 86.6087 186.53C86.1929 186.849 85.7834 187.164 85.3788 187.471C80.9425 190.837 76.9812 193.414 71.0607 193.339C65.3458 193.267 61.5859 190.556 57.2815 187.106C57.0263 186.901 56.7689 186.694 56.5089 186.484C52.4677 183.226 47.7993 179.462 40.9213 178.37C39.8882 178.206 38.8647 178.033 37.8495 177.861C28.5732 176.294 19.9847 174.843 11.0613 181.315C7.90832 183.602 5.76333 187.022 4.28176 190.614C2.79254 194.225 1.89488 198.201 1.34956 201.838C0.802466 205.487 0.598596 208.875 0.53049 211.346C0.496365 212.584 0.496161 213.598 0.504674 214.308C0.508932 214.662 0.515377 214.941 0.520877 215.135C0.523628 215.231 0.526143 215.306 0.528034 215.359L0.530351 215.42L0.531068 215.438L0.531381 215.445C0.531381 215.445 0.53144 215.447 3.02911 215.339L0.53144 215.447L0.634845 217.839H189.682L185.879 213.657L184.029 215.339Z" fill="white"/>
<path fill-rule="evenodd" clip-rule="evenodd" d="M57.8935 106.178L92.8487 127.394L95.4429 123.119L59.5519 101.336C59.1953 103.034 58.6335 104.658 57.8935 106.178ZM50.1552 79.2045L93.975 7.00574C94.6914 5.82541 96.229 5.44931 97.4093 6.16569L214.526 77.2477C215.706 77.9641 216.083 79.5017 215.366 80.682L165.557 162.749C164.84 163.93 163.303 164.306 162.123 163.589L129.638 143.873L127.043 148.147L159.528 167.864C163.069 170.013 167.682 168.884 169.831 165.343L219.641 83.2763C221.79 79.7353 220.661 75.1225 217.12 72.9734L100.004 1.89135C96.4626 -0.257783 91.8498 0.870526 89.7007 4.4115L45.6075 77.0606C47.2187 77.5942 48.7435 78.3177 50.1552 79.2045ZM116.815 136.09L108.266 130.902L105.672 135.176L114.22 140.365L116.815 136.09ZM133.414 72.3228C133.22 68.9485 131.979 67.3109 130.861 66.6891C129.744 66.0674 127.698 65.8764 124.728 67.4908C121.823 69.0705 118.698 72.0981 116.335 76.3453C113.972 80.5925 113.048 84.8442 113.238 88.1459C113.432 91.5202 114.673 93.1578 115.791 93.7796C116.909 94.4014 118.955 94.5923 121.924 92.9779C124.83 91.3982 127.955 88.3706 130.317 84.1234C132.68 79.8762 133.604 75.6245 133.414 72.3228ZM134.687 86.5541C140.191 76.6601 139.566 65.81 133.292 62.3197C127.018 58.8294 117.47 64.0207 111.966 73.9146C106.462 83.8086 107.086 94.6587 113.361 98.149C119.635 101.639 129.183 96.4481 134.687 86.5541Z" fill="white"/>
<path fill-rule="evenodd" clip-rule="evenodd" d="M56.3506 82.8838C54.5027 81.3114 51.6651 79.7546 46.9415 77.5471L49.0585 73.0173C53.7569 75.2131 57.1692 77.0152 59.5909 79.0759C62.1551 81.2578 63.5463 83.6684 64.4119 86.8422L64.4529 86.9924L64.4749 87.1464C64.7662 89.1857 64.7113 92.3124 64.4424 95.7263C64.1689 99.1981 63.6576 103.159 62.9587 106.953L58.0414 106.047C58.7093 102.421 59.198 98.6319 59.4578 95.3337C59.7134 92.0892 59.7327 89.4922 59.5452 88.0033C58.9132 85.7648 58.0179 84.3025 56.3506 82.8838Z" fill="white"/>
</svg>
