<svg width="198" height="261" viewBox="0 0 198 261" fill="none" xmlns="http://www.w3.org/2000/svg">
<path fill-rule="evenodd" clip-rule="evenodd" d="M128.698 208.828C130.783 209.456 132.944 210.108 135.207 210.775C138.494 211.744 141.625 212.386 144.683 212.972C145.158 213.063 145.632 213.152 146.107 213.242C148.654 213.724 151.19 214.205 153.63 214.832C159.538 216.352 165.113 218.789 170.341 224.482C175.269 229.848 178.002 238.423 179.526 245.262C180.303 248.748 180.793 251.918 181.09 254.215C181.238 255.365 181.338 256.301 181.402 256.953C181.434 257.279 181.456 257.534 181.471 257.711C181.478 257.799 181.484 257.867 181.488 257.915L181.492 257.97L181.493 257.986L181.493 257.991L181.493 257.992C181.493 257.992 181.494 257.994 179 258.173L181.494 257.994L181.686 260.673H0.0836487L0.529375 257.791L3 258.173C0.529375 257.791 0.529546 257.79 0.529546 257.79L0.53054 257.783L0.532996 257.768L0.541807 257.712C0.549425 257.665 0.560546 257.596 0.57525 257.508C0.604655 257.331 0.648405 257.075 0.707145 256.748C0.824594 256.093 1.00215 255.155 1.24501 254.001C1.73016 251.695 2.47882 248.518 3.5342 245.029C5.60798 238.174 8.99884 229.65 14.2304 224.407C18.9409 219.686 23.6152 217.285 28.5681 215.553C30.8647 214.75 33.238 214.085 35.6474 213.41C35.7926 213.369 35.938 213.329 36.0835 213.288C38.6655 212.564 41.3277 211.807 44.1757 210.813C44.4777 210.707 44.7773 210.602 45.0744 210.499C59.13 205.588 67.8881 202.528 83.3626 201.677C101.643 200.671 113.024 204.102 128.698 208.828ZM6.00481 255.673H176.233C176.202 255.415 176.168 255.142 176.131 254.855C175.849 252.666 175.382 249.652 174.646 246.349C173.144 239.609 170.627 232.185 166.659 227.864C162.272 223.087 157.665 221.033 152.385 219.675C150.115 219.091 147.764 218.645 145.214 218.162C144.731 218.071 144.241 217.978 143.743 217.882C140.65 217.29 137.324 216.611 133.793 215.571C131.502 214.895 129.328 214.241 127.245 213.614C111.579 208.897 101.004 205.713 83.6374 206.669C68.8726 207.481 60.6867 210.341 46.5973 215.263C46.3416 215.352 46.084 215.442 45.8243 215.533C42.8138 216.584 40.0175 217.378 37.4333 218.102C37.303 218.139 37.1733 218.175 37.0442 218.211C34.5913 218.898 32.3608 219.523 30.219 220.273C25.7928 221.821 21.8257 223.874 17.7697 227.939C13.4734 232.244 10.3643 239.719 8.32001 246.477C7.31636 249.795 6.60147 252.827 6.13782 255.03C6.0909 255.253 6.04657 255.468 6.00481 255.673Z" fill="white"/>
<path fill-rule="evenodd" clip-rule="evenodd" d="M169.833 7.72855C173.661 0.661881 182.493 -1.96347 189.56 1.86466C196.627 5.69279 199.252 14.5248 195.424 21.5914L136.868 129.684C135.816 131.627 133.388 132.348 131.446 131.296L112.89 121.244C110.947 120.191 110.225 117.764 111.278 115.821L169.833 7.72855ZM186.702 7.1403C182.549 4.89055 177.359 6.43344 175.109 10.5865L117.506 116.921L132.545 125.068L190.148 18.7335C192.398 14.5805 190.855 9.39006 186.702 7.1403Z" fill="white"/>
<path fill-rule="evenodd" clip-rule="evenodd" d="M68.1571 101.485C69.5398 96.5404 75.1571 94.1598 79.6721 96.6057L170.963 146.06C175.437 148.483 176.542 154.413 173.24 158.284L129.417 209.681C127.513 211.915 124.539 212.926 121.668 212.316L108.21 209.459L93.3037 207.5H82.4781C82.3509 207.5 82.224 207.512 82.0991 207.536L57.6344 212.257C54.2321 212.914 50.7939 211.306 49.1173 208.273L43.5169 198.144C42.5005 196.306 42.2479 194.142 42.8136 192.119L68.1571 101.485ZM76.8141 101.881C75.6854 101.27 74.2811 101.865 73.9354 103.101L48.5919 193.735C48.4505 194.24 48.5137 194.781 48.7677 195.241L54.3682 205.37C54.7873 206.128 55.6469 206.53 56.4974 206.366L80.9622 201.645C81.4617 201.549 81.9693 201.5 82.4781 201.5H93.6963L109.225 203.541L122.914 206.447C123.632 206.6 124.375 206.347 124.851 205.788L168.675 154.391C169.5 153.423 169.224 151.941 168.105 151.335L76.8141 101.881Z" fill="white"/>
</svg>
